<svg width="40" height="40" viewBox="0 0 40 40" fill="none" xmlns="http://www.w3.org/2000/svg">
<rect x="9" y="12" width="24" height="16" fill="white"/>
<path d="M29.6923 5H11.2308C5.69231 5 2 8.75 2 14.375V25.625C2 31.25 5.69231 35 11.2308 35H29.6923C35.2308 35 38.9231 31.25 38.9231 25.625V14.375C38.9231 8.75 35.2308 5 29.6923 5ZM23.9508 21.9312L19.3908 24.7063C17.5446 25.8313 16.0307 24.9687 16.0307 22.775V17.2063C16.0307 15.0125 17.5446 14.15 19.3908 15.275L23.9508 18.05C25.7046 19.1375 25.7046 20.8625 23.9508 21.9312Z" fill="#4E1AC3"/>
</svg>
